<?xml version="1.0" encoding="UTF-8" standalone="no"?>
<!-- Created with Inkscape (http://www.inkscape.org/) -->

<svg
   width="2560mm"
   height="1920mm"
   viewBox="0 0 2560 1920"
   version="1.1"
   id="svg1"
   inkscape:version="1.4.2 (f4327f4, 2025-05-13)"
   sodipodi:docname="fotoinarrivo.svg"
   xmlns:inkscape="http://www.inkscape.org/namespaces/inkscape"
   xmlns:sodipodi="http://sodipodi.sourceforge.net/DTD/sodipodi-0.dtd"
   xmlns="http://www.w3.org/2000/svg"
   xmlns:svg="http://www.w3.org/2000/svg">
  <sodipodi:namedview
     id="namedview1"
     pagecolor="#000000"
     bordercolor="#000000"
     borderopacity="0.25"
     inkscape:showpageshadow="2"
     inkscape:pageopacity="0.0"
     inkscape:pagecheckerboard="0"
     inkscape:deskcolor="#d1d1d1"
     inkscape:document-units="mm"
     inkscape:zoom="0.040923559"
     inkscape:cx="8796.8889"
     inkscape:cy="1600.5451"
     inkscape:window-width="1920"
     inkscape:window-height="974"
     inkscape:window-x="-11"
     inkscape:window-y="-11"
     inkscape:window-maximized="1"
     inkscape:current-layer="layer1" />
  <defs
     id="defs1">
    <rect
       x="777.54248"
       y="1226.7892"
       width="7792.7035"
       height="2142.5615"
       id="rect1" />
  </defs>
  <g
     inkscape:label="Livello 1"
     inkscape:groupmode="layer"
     id="layer1">
    <g
       id="text2"
       style="font-size:246.944px;fill:#ffffff;stroke-width:0.264583"
       aria-label="FOTO IN ARRIVO&#10;----------------------&#10;PHOTO COMING&#10;SOON">
      <path
         style="font-weight:600;font-family:Montserrat;-inkscape-font-specification:'Montserrat Semi-Bold';text-align:center;text-anchor:middle;fill:#f2f5f7"
         d="m 230.24103,580.90527 v -172.8608 h 126.18839 v 26.9169 h -94.08567 v 145.9439 z m 29.38634,-66.18099 v -27.16384 h 86.18346 v 27.16384 z m 207.03509,68.65043 q -20.24941,0 -37.28854,-6.66748 -17.03914,-6.66749 -29.63328,-18.5208 -12.59415,-12.10026 -19.50858,-28.15162 -6.91443,-16.2983 -6.91443,-35.55994 0,-19.26163 6.91443,-35.31299 6.91443,-16.2983 19.50858,-28.15161 12.59414,-12.10026 29.63328,-18.76775 17.03913,-6.66749 37.0416,-6.66749 20.24941,0 37.0416,6.66749 17.03913,6.66749 29.63328,18.76775 12.59414,11.85331 19.50857,28.15161 6.91444,16.05136 6.91444,35.31299 0,19.26164 -6.91444,35.55994 -6.91443,16.2983 -19.50857,28.15162 -12.59415,11.85331 -29.63328,18.5208 -16.79219,6.66748 -36.79466,6.66748 z m -0.24694,-28.15161 q 13.08803,0 24.20051,-4.44499 11.11248,-4.445 19.26163,-12.59415 8.14915,-8.39609 12.59415,-19.26163 4.69193,-11.11248 4.69193,-24.44746 0,-13.33497 -4.69193,-24.20051 -4.445,-11.11248 -12.59415,-19.26163 -8.14915,-8.3961 -19.26163,-12.84109 -11.11248,-4.44499 -24.20051,-4.44499 -13.08803,0 -24.20051,4.44499 -10.86554,4.44499 -19.26164,12.84109 -8.14915,8.14915 -12.84108,19.26163 -4.445,10.86554 -4.445,24.20051 0,13.08804 4.445,24.20052 4.69193,11.11248 12.84108,19.50857 8.14916,8.14915 19.26164,12.59415 11.11248,4.44499 24.20051,4.44499 z m 159.77297,25.68217 V 435.20831 h -57.29101 v -27.16384 h 146.68474 v 27.16384 h -57.29101 v 145.69696 z m 192.1222,2.46944 q -20.24941,0 -37.28855,-6.66748 -17.03913,-6.66749 -29.63328,-18.5208 -12.59414,-12.10026 -19.50857,-28.15162 -6.91444,-16.2983 -6.91444,-35.55994 0,-19.26163 6.91444,-35.31299 6.91443,-16.2983 19.50857,-28.15161 12.59415,-12.10026 29.63328,-18.76775 17.03914,-6.66749 37.0416,-6.66749 20.24941,0 37.0416,6.66749 17.03914,6.66749 29.63328,18.76775 12.59415,11.85331 19.50858,28.15161 6.91443,16.05136 6.91443,35.31299 0,19.26164 -6.91443,35.55994 -6.91443,16.2983 -19.50858,28.15162 -12.59414,11.85331 -29.63328,18.5208 -16.79219,6.66748 -36.79465,6.66748 z m -0.24695,-28.15161 q 13.08803,0 24.20051,-4.44499 11.11248,-4.445 19.26164,-12.59415 8.14915,-8.39609 12.59414,-19.26163 4.69194,-11.11248 4.69194,-24.44746 0,-13.33497 -4.69194,-24.20051 -4.44499,-11.11248 -12.59414,-19.26163 -8.14916,-8.3961 -19.26164,-12.84109 -11.11248,-4.44499 -24.20051,-4.44499 -13.08803,0 -24.20051,4.44499 -10.86554,4.44499 -19.26163,12.84109 -8.14915,8.14915 -12.84109,19.26163 -4.44499,10.86554 -4.44499,24.20051 0,13.08804 4.44499,24.20052 4.69194,11.11248 12.84109,19.50857 8.14915,8.14915 19.26163,12.59415 11.11248,4.44499 24.20051,4.44499 z m 195.33266,25.68217 v -172.8608 h 32.1027 v 172.8608 z m 78.7752,0 v -172.8608 h 26.423 l 108.4085,133.10282 H 1213.915 V 408.04447 h 31.8558 v 172.8608 h -26.423 L 1110.9394,447.80246 h 13.088 v 133.10281 z m 243.7334,0 77.7874,-172.8608 h 31.6088 l 78.0343,172.8608 h -33.5844 l -66.9218,-155.82166 h 12.8411 l -66.6749,155.82166 z m 35.8069,-40.00492 8.643,-25.18829 h 93.3449 l 8.643,25.18829 z m 173.6018,40.00492 v -172.8608 h 70.8729 q 34.5722,0 54.0807,16.29831 19.7555,16.2983 19.7555,45.19075 0,19.01469 -8.8899,32.84355 -8.89,13.58192 -25.4353,20.99024 -16.2983,7.16138 -39.2641,7.16138 h -53.3399 l 14.3228,-14.5697 v 64.94627 z m 113.1003,0 -43.7091,-62.72377 h 34.3252 l 43.9561,62.72377 z m -80.9976,-61.48905 -14.3228,-15.31053 h 51.8583 q 21.2372,0 31.8557,-9.13693 10.8656,-9.13693 10.8656,-25.43523 0,-16.54525 -10.8656,-25.43523 -10.6185,-8.88999 -31.8557,-8.88999 h -51.8583 l 14.3228,-15.80441 z m 148.4135,61.48905 v -172.8608 h 70.8729 q 34.5722,0 54.0808,16.29831 19.7555,16.2983 19.7555,45.19075 0,19.01469 -8.89,32.84355 -8.89,13.58192 -25.4352,20.99024 -16.2983,7.16138 -39.2641,7.16138 h -53.3399 l 14.3227,-14.5697 v 64.94627 z m 113.1004,0 -43.7091,-62.72377 h 34.3252 l 43.956,62.72377 z m -80.9977,-61.48905 -14.3227,-15.31053 h 51.8582 q 21.2372,0 31.8558,-9.13693 10.8655,-9.13693 10.8655,-25.43523 0,-16.54525 -10.8655,-25.43523 -10.6186,-8.88999 -31.8558,-8.88999 h -51.8582 l 14.3227,-15.80441 z m 148.4137,61.48905 v -172.8608 h 32.1027 v 172.8608 z m 126.1885,0 -75.5648,-172.8608 h 34.8191 l 67.4157,156.31556 h -20.0025 l 68.1566,-156.31556 h 32.1027 l -75.3179,172.8608 z m 204.3733,2.46944 q -20.2494,0 -37.2885,-6.66748 -17.0392,-6.66749 -29.6333,-18.5208 -12.5942,-12.10026 -19.5086,-28.15162 -6.9144,-16.2983 -6.9144,-35.55994 0,-19.26163 6.9144,-35.31299 6.9144,-16.2983 19.5086,-28.15161 12.5941,-12.10026 29.6333,-18.76775 17.0391,-6.66749 37.0416,-6.66749 20.2494,0 37.0416,6.66749 17.0391,6.66749 29.6332,18.76775 12.5942,11.85331 19.5086,28.15161 6.9144,16.05136 6.9144,35.31299 0,19.26164 -6.9144,35.55994 -6.9144,16.2983 -19.5086,28.15162 -12.5941,11.85331 -29.6332,18.5208 -16.7922,6.66748 -36.7947,6.66748 z m -0.2469,-28.15161 q 13.088,0 24.2005,-4.44499 11.1124,-4.445 19.2616,-12.59415 8.1492,-8.39609 12.5941,-19.26163 4.692,-11.11248 4.692,-24.44746 0,-13.33497 -4.692,-24.20051 -4.4449,-11.11248 -12.5941,-19.26163 -8.1492,-8.3961 -19.2616,-12.84109 -11.1125,-4.44499 -24.2005,-4.44499 -13.0881,0 -24.2006,4.44499 -10.8655,4.44499 -19.2616,12.84109 -8.1491,8.14915 -12.8411,19.26163 -4.445,10.86554 -4.445,24.20051 0,13.08804 4.445,24.20052 4.692,11.11248 12.8411,19.50857 8.1492,8.14915 19.2616,12.59415 11.1125,4.44499 24.2006,4.44499 z"
         id="path1" />
      <path
         style="font-weight:600;font-family:Montserrat;-inkscape-font-specification:'Montserrat Semi-Bold';text-align:center;text-anchor:middle;fill:#5ee7ff"
         d="m 238.23205,835.44606 v -25.68217 h 67.9096 v 25.68217 z m 95.39426,0 v -25.68217 h 67.9096 v 25.68217 z m 95.39425,0 v -25.68217 h 67.9096 v 25.68217 z m 95.39426,0 v -25.68217 h 67.9096 v 25.68217 z m 95.39426,0 v -25.68217 h 67.9096 v 25.68217 z m 95.39425,0 v -25.68217 h 67.9096 v 25.68217 z m 95.39426,0 v -25.68217 h 67.9096 v 25.68217 z m 95.39423,0 v -25.68217 h 67.9096 v 25.68217 z m 95.39428,0 v -25.68217 h 67.9096 v 25.68217 z m 95.3943,0 v -25.68217 h 67.9096 v 25.68217 z m 95.3942,0 v -25.68217 h 67.9096 v 25.68217 z m 95.3942,0 v -25.68217 h 67.9096 v 25.68217 z m 95.3943,0 v -25.68217 h 67.9096 v 25.68217 z m 95.3943,0 v -25.68217 h 67.9096 v 25.68217 z m 95.3942,0 v -25.68217 h 67.9096 v 25.68217 z m 95.3943,0 v -25.68217 h 67.9096 v 25.68217 z m 95.3943,0 v -25.68217 h 67.9096 v 25.68217 z m 95.3942,0 v -25.68217 h 67.9096 v 25.68217 z m 95.3943,0 v -25.68217 h 67.9096 v 25.68217 z m 95.3942,0 v -25.68217 h 67.9096 v 25.68217 z m 95.3943,0 v -25.68217 h 67.9096 v 25.68217 z m 95.3943,0 v -25.68217 h 67.9096 v 25.68217 z"
         id="path2" />
      <path
         style="font-weight:600;font-family:Montserrat;-inkscape-font-specification:'Montserrat Semi-Bold';text-align:center;text-anchor:middle;fill:#f2f5f7"
         d="m 253.66404,1201.6055 v -172.8608 h 71.11987 q 22.96579,0 39.2641,7.4084 16.54525,7.4083 25.43523,21.2371 8.88998,13.8289 8.88998,32.8436 0,19.0147 -8.88998,32.8435 -8.88998,13.8289 -25.43523,21.2372 -16.29831,7.4084 -39.2641,7.4084 h -53.3399 l 14.32275,-15.0636 v 64.9462 z m 32.10272,-61.489 -14.32275,-15.5575 h 51.85824 q 21.23718,0 31.85577,-8.89 10.86554,-9.1369 10.86554,-25.4352 0,-16.5453 -10.86554,-25.4352 -10.61859,-8.89 -31.85577,-8.89 h -51.85824 l 14.32275,-15.8044 z m 266.20554,61.489 v -172.8608 h 32.10272 v 172.8608 z m -121.49645,0 v -172.8608 h 32.10272 v 172.8608 z m 29.38634,-74.0832 v -27.4107 h 94.57955 v 27.4107 z m 251.63579,76.5527 q -20.24941,0 -37.28855,-6.6675 -17.03913,-6.6675 -29.63328,-18.5208 -12.59414,-12.1003 -19.50857,-28.1516 -6.91444,-16.2983 -6.91444,-35.56 0,-19.2616 6.91444,-35.313 6.91443,-16.2983 19.50857,-28.1516 12.59415,-12.1002 29.63328,-18.7677 17.03914,-6.6675 37.0416,-6.6675 20.24941,0 37.0416,6.6675 17.03914,6.6675 29.63328,18.7677 12.59415,11.8533 19.50858,28.1516 6.91443,16.0514 6.91443,35.313 0,19.2617 -6.91443,35.56 -6.91443,16.2983 -19.50858,28.1516 -12.59414,11.8533 -29.63328,18.5208 -16.79219,6.6675 -36.79465,6.6675 z m -0.24695,-28.1516 q 13.08803,0 24.20051,-4.445 11.11248,-4.445 19.26164,-12.5942 8.14915,-8.3961 12.59414,-19.2616 4.69194,-11.1125 4.69194,-24.4475 0,-13.3349 -4.69194,-24.2005 -4.44499,-11.1125 -12.59414,-19.2616 -8.14916,-8.3961 -19.26164,-12.8411 -11.11248,-4.445 -24.20051,-4.445 -13.08803,0 -24.20051,4.445 -10.86554,4.445 -19.26163,12.8411 -8.14915,8.1491 -12.84109,19.2616 -4.44499,10.8656 -4.44499,24.2005 0,13.0881 4.44499,24.2006 4.69194,11.1124 12.84109,19.5085 8.14915,8.1492 19.26163,12.5942 11.11248,4.445 24.20051,4.445 z m 159.773,25.6821 v -145.6969 h -57.291 v -27.1639 h 146.68473 v 27.1639 h -57.29101 v 145.6969 z m 192.12217,2.4695 q -20.2494,0 -37.2886,-6.6675 -17.0391,-6.6675 -29.63325,-18.5208 -12.59415,-12.1003 -19.50858,-28.1516 -6.91443,-16.2983 -6.91443,-35.56 0,-19.2616 6.91443,-35.313 6.91443,-16.2983 19.50858,-28.1516 12.59415,-12.1002 29.63325,-18.7677 17.0392,-6.6675 37.0416,-6.6675 20.2494,0 37.0416,6.6675 17.0392,6.6675 29.6333,18.7677 12.5941,11.8533 19.5086,28.1516 6.9144,16.0514 6.9144,35.313 0,19.2617 -6.9144,35.56 -6.9145,16.2983 -19.5086,28.1516 -12.5941,11.8533 -29.6333,18.5208 -16.7922,6.6675 -36.7946,6.6675 z m -0.247,-28.1516 q 13.0881,0 24.2005,-4.445 11.1125,-4.445 19.2617,-12.5942 8.1491,-8.3961 12.5941,-19.2616 4.6919,-11.1125 4.6919,-24.4475 0,-13.3349 -4.6919,-24.2005 -4.445,-11.1125 -12.5941,-19.2616 -8.1492,-8.3961 -19.2617,-12.8411 -11.1124,-4.445 -24.2005,-4.445 -13.088,0 -24.2005,4.445 -10.8655,4.445 -19.2616,12.8411 -8.1492,8.1491 -12.8411,19.2616 -4.445,10.8656 -4.445,24.2005 0,13.0881 4.445,24.2006 4.6919,11.1124 12.8411,19.5085 8.1491,8.1492 19.2616,12.5942 11.1125,4.445 24.2005,4.445 z m 275.3426,28.1516 q -19.7555,0 -36.7946,-6.4206 -16.7922,-6.6675 -29.3864,-18.5208 -12.3472,-12.1002 -19.2616,-28.3985 -6.9144,-16.2983 -6.9144,-35.56 0,-19.2616 6.9144,-35.5599 6.9144,-16.2983 19.5086,-28.1516 12.5941,-12.1003 29.3863,-18.5208 16.7922,-6.6675 36.7947,-6.6675 21.2372,0 38.7702,7.4083 17.533,7.1614 29.6333,21.4841 l -20.7433,19.5086 q -9.3839,-10.1247 -20.9903,-15.0636 -11.6063,-5.1858 -25.1883,-5.1858 -13.5819,0 -24.9413,4.445 -11.1125,4.445 -19.5086,12.5942 -8.1491,8.1491 -12.8411,19.2616 -4.445,11.1125 -4.445,24.4474 0,13.335 4.445,24.4475 4.692,11.1125 12.8411,19.2616 8.3961,8.1492 19.5086,12.5942 11.3594,4.445 24.9413,4.445 13.582,0 25.1883,-4.9389 11.6064,-5.1858 20.9903,-15.5575 l 20.7433,19.7555 q -12.1003,14.0758 -29.6333,21.4842 -17.533,7.4083 -39.0172,7.4083 z m 169.9714,0 q -20.2494,0 -37.2886,-6.6675 -17.0391,-6.6675 -29.6332,-18.5208 -12.5942,-12.1003 -19.5086,-28.1516 -6.9144,-16.2983 -6.9144,-35.56 0,-19.2616 6.9144,-35.313 6.9144,-16.2983 19.5086,-28.1516 12.5941,-12.1002 29.6332,-18.7677 17.0392,-6.6675 37.0416,-6.6675 20.2494,0 37.0416,6.6675 17.0392,6.6675 29.6333,18.7677 12.5942,11.8533 19.5086,28.1516 6.9144,16.0514 6.9144,35.313 0,19.2617 -6.9144,35.56 -6.9144,16.2983 -19.5086,28.1516 -12.5941,11.8533 -29.6333,18.5208 -16.7922,6.6675 -36.7946,6.6675 z m -0.247,-28.1516 q 13.0881,0 24.2006,-4.445 11.1124,-4.445 19.2616,-12.5942 8.1491,-8.3961 12.5941,-19.2616 4.692,-11.1125 4.692,-24.4475 0,-13.3349 -4.692,-24.2005 -4.445,-11.1125 -12.5941,-19.2616 -8.1492,-8.3961 -19.2616,-12.8411 -11.1125,-4.445 -24.2006,-4.445 -13.088,0 -24.2005,4.445 -10.8655,4.445 -19.2616,12.8411 -8.1492,8.1491 -12.8411,19.2616 -4.445,10.8656 -4.445,24.2005 0,13.0881 4.445,24.2006 4.6919,11.1124 12.8411,19.5085 8.1491,8.1492 19.2616,12.5942 11.1125,4.445 24.2005,4.445 z m 127.1765,25.6821 v -172.8608 h 26.423 l 75.5649,126.1884 h -13.8289 l 74.3301,-126.1884 h 26.423 l 0.247,172.8608 h -30.3741 l -0.247,-125.2006 h 6.4206 l -63.2177,105.4451 h -14.3227 l -64.2055,-105.4451 h 7.4083 v 125.2006 z m 235.8315,0 v -172.8608 h 32.1027 v 172.8608 z m 78.7752,0 v -172.8608 h 26.423 l 108.4084,133.1029 h -13.088 v -133.1029 h 31.8557 v 172.8608 h -26.423 l -108.4084,-133.1028 h 13.088 v 133.1028 z m 280.7752,2.4695 q -20.2494,0 -37.2886,-6.4206 -16.7921,-6.6675 -29.3863,-18.5208 -12.5941,-12.1002 -19.5086,-28.3985 -6.9144,-16.2983 -6.9144,-35.56 0,-19.2616 6.9144,-35.5599 6.9145,-16.2983 19.5086,-28.1516 12.8411,-12.1003 29.8802,-18.5208 17.0392,-6.6675 37.2886,-6.6675 21.978,0 39.511,7.1614 17.78,7.1614 29.8802,20.9902 l -20.2494,19.7555 q -10.1247,-10.1247 -21.978,-14.8166 -11.6063,-4.9389 -25.6822,-4.9389 -13.5819,0 -25.1882,4.445 -11.6064,4.445 -20.0025,12.5942 -8.3961,8.1491 -13.088,19.2616 -4.445,11.1125 -4.445,24.4474 0,13.0881 4.445,24.2006 4.6919,11.1124 13.088,19.5085 8.3961,8.1492 19.7555,12.5942 11.3594,4.445 25.1883,4.445 12.8411,0 24.6944,-3.9511 12.1003,-4.1981 22.9658,-13.8289 l 18.2738,23.9536 q -13.5819,10.8655 -31.6088,16.5452 -17.78,5.4328 -36.0538,5.4328 z m 67.6626,-21.978 -30.3741,-4.1981 v -64.6993 h 30.3741 z"
         id="path3" />
      <path
         style="font-weight:600;font-family:Montserrat;-inkscape-font-specification:'Montserrat Semi-Bold';text-align:center;text-anchor:middle;fill:#f2f5f7"
         d="m 965.02293,1514.4251 q -20.24941,0 -38.77021,-5.6797 -18.5208,-5.9267 -29.38633,-15.0636 l 11.11248,-24.9413 q 10.37164,8.1491 25.68217,13.5819 15.31053,5.4328 31.36189,5.4328 13.58192,0 21.97802,-2.9634 8.39609,-2.9633 12.3472,-7.9022 3.95115,-5.1858 3.95115,-11.6063 0,-7.9023 -5.67976,-12.5942 -5.67971,-4.9389 -14.81664,-7.6553 -8.88999,-2.9633 -20.00247,-5.4327 -10.86553,-2.4695 -21.97801,-5.6797 -10.86554,-3.4572 -20.00247,-8.6431 -8.88998,-5.4327 -14.56969,-14.3227 -5.67971,-8.89 -5.67971,-22.7189 0,-14.0758 7.40832,-25.6821 7.65526,-11.8534 22.96579,-18.7678 15.55747,-7.1614 39.26409,-7.1614 15.55748,0 30.86805,3.9511 15.3105,3.9511 26.6699,11.3595 l -10.1247,24.9413 q -11.6064,-6.9144 -23.95357,-10.1247 -12.3472,-3.4572 -23.70662,-3.4572 -13.33498,0 -21.73107,3.2103 -8.14915,3.2102 -12.10026,8.3961 -3.70416,5.1858 -3.70416,11.8533 0,7.9022 5.43277,12.8411 5.67971,4.6919 14.5697,7.4083 9.13692,2.7164 20.2494,5.4327 11.11248,2.4695 21.97802,5.6798 11.11249,3.2102 20.00249,8.396 9.1369,5.1859 14.5697,14.0759 5.6797,8.8899 5.6797,22.4719 0,13.8288 -7.6553,25.6821 -7.4083,11.6064 -22.9658,18.7678 -15.55745,6.9144 -39.26407,6.9144 z m 182.73847,0 q -20.2494,0 -37.2885,-6.6675 -17.0392,-6.6675 -29.6333,-18.5208 -12.5942,-12.1002 -19.5086,-28.1516 -6.9144,-16.2983 -6.9144,-35.5599 0,-19.2617 6.9144,-35.313 6.9144,-16.2983 19.5086,-28.1516 12.5941,-12.1003 29.6333,-18.7678 17.0391,-6.6675 37.0416,-6.6675 20.2494,0 37.0416,6.6675 17.0391,6.6675 29.6332,18.7678 12.5942,11.8533 19.5086,28.1516 6.9145,16.0513 6.9145,35.313 0,19.2616 -6.9145,35.5599 -6.9144,16.2983 -19.5086,28.1516 -12.5941,11.8533 -29.6332,18.5208 -16.7922,6.6675 -36.7947,6.6675 z m -0.2469,-28.1516 q 13.088,0 24.2005,-4.445 11.1125,-4.445 19.2616,-12.5941 8.1492,-8.3961 12.5942,-19.2617 4.6919,-11.1125 4.6919,-24.4474 0,-13.335 -4.6919,-24.2005 -4.445,-11.1125 -12.5942,-19.2617 -8.1491,-8.3961 -19.2616,-12.8411 -11.1125,-4.445 -24.2005,-4.445 -13.0881,0 -24.2005,4.445 -10.8656,4.445 -19.2617,12.8411 -8.1491,8.1492 -12.8411,19.2617 -4.445,10.8655 -4.445,24.2005 0,13.088 4.445,24.2005 4.692,11.1125 12.8411,19.5086 8.1492,8.1491 19.2617,12.5941 11.1124,4.445 24.2005,4.445 z m 208.174,28.1516 q -20.2494,0 -37.2886,-6.6675 -17.0391,-6.6675 -29.6332,-18.5208 -12.5942,-12.1002 -19.5086,-28.1516 -6.9145,-16.2983 -6.9145,-35.5599 0,-19.2617 6.9145,-35.313 6.9144,-16.2983 19.5086,-28.1516 12.5941,-12.1003 29.6332,-18.7678 17.0392,-6.6675 37.0416,-6.6675 20.2494,0 37.0416,6.6675 17.0392,6.6675 29.6333,18.7678 12.5942,11.8533 19.5086,28.1516 6.9144,16.0513 6.9144,35.313 0,19.2616 -6.9144,35.5599 -6.9144,16.2983 -19.5086,28.1516 -12.5941,11.8533 -29.6333,18.5208 -16.7922,6.6675 -36.7946,6.6675 z m -0.247,-28.1516 q 13.0881,0 24.2005,-4.445 11.1125,-4.445 19.2617,-12.5941 8.1491,-8.3961 12.5941,-19.2617 4.692,-11.1125 4.692,-24.4474 0,-13.335 -4.692,-24.2005 -4.445,-11.1125 -12.5941,-19.2617 -8.1492,-8.3961 -19.2617,-12.8411 -11.1124,-4.445 -24.2005,-4.445 -13.088,0 -24.2005,4.445 -10.8655,4.445 -19.2616,12.8411 -8.1492,8.1492 -12.8411,19.2617 -4.445,10.8655 -4.445,24.2005 0,13.088 4.445,24.2005 4.6919,11.1125 12.8411,19.5086 8.1491,8.1491 19.2616,12.5941 11.1125,4.445 24.2005,4.445 z m 127.1765,25.6822 v -172.8608 h 26.423 l 108.4084,133.1028 h -13.088 v -133.1028 h 31.8557 v 172.8608 h -26.423 l -108.4084,-133.1028 h 13.088 v 133.1028 z"
         id="path4" />
    </g>
  </g>
</svg>
