<?xml version="1.0" encoding="UTF-8" standalone="no"?>
<!-- Created with Inkscape (http://www.inkscape.org/) -->

<svg
   version="1.1"
   id="svg1"
   width="1920"
   height="1080"
   viewBox="0 0 1919.9999 1080"
   sodipodi:docname="hero-contatti.svg"
   inkscape:version="1.4.2 (f4327f4, 2025-05-13)"
   xmlns:inkscape="http://www.inkscape.org/namespaces/inkscape"
   xmlns:sodipodi="http://sodipodi.sourceforge.net/DTD/sodipodi-0.dtd"
   xmlns="http://www.w3.org/2000/svg"
   xmlns:svg="http://www.w3.org/2000/svg">
  <defs
     id="defs1" />
  <sodipodi:namedview
     id="namedview1"
     pagecolor="#ffffff"
     bordercolor="#000000"
     borderopacity="0.25"
     inkscape:showpageshadow="2"
     inkscape:pageopacity="0.0"
     inkscape:pagecheckerboard="0"
     inkscape:deskcolor="#d1d1d1"
     inkscape:zoom="0.27068931"
     inkscape:cx="496.87961"
     inkscape:cy="821.97556"
     inkscape:window-width="1920"
     inkscape:window-height="974"
     inkscape:window-x="-11"
     inkscape:window-y="-11"
     inkscape:window-maximized="1"
     inkscape:current-layer="g1" />
  <g
     inkscape:groupmode="layer"
     inkscape:label="Image"
     id="g1"
     style="display:inline"
     transform="translate(302.16631)">
    <path
       style="fill:#61c3cb;fill-opacity:1;stroke-width:1.55386"
       d="M -5.9322313,476.34221 C -133.47292,475.76626 -183.37152,475.05372 -186.18078,473.76832 c -5.45664,-2.49674 -10.2037,-8.16249 -12.18077,-14.53814 -1.98754,-6.40933 -1.90102,4.69453 -1.13475,-145.63869 l 0.61166,-119.99988 3.63266,-6.64027 c 2.64194,-4.82929 5.75156,-7.69971 11.40199,-10.52493 l 7.76935,-3.88467 205.887359,0.5446 c 231.813971,0.61317 215.411381,-0.28013 221.537941,12.06508 2.8881,5.81965 2.99582,10.8142 2.99582,138.89234 v 132.85562 l -3.64267,6.35542 c -2.00345,3.4955 -5.50454,7.45527 -7.78018,8.79953 -6.31339,3.72942 -26.04597,5.86211 -50.45579,5.45328 -12.1166,-0.20295 -101.393921,-0.72738 -198.3940713,-1.1654 z M 224.09696,459.33646 c -1.67179,-3.12376 -6.40262,-7.49448 -59.10383,-54.6046 C 147.47329,389.07068 123.57335,366.64598 111.88217,354.89917 100.191,343.15234 87.807329,332.1036 84.362929,330.3464 c -11.44052,-5.83652 -15.36947,-4.56353 -35.13288,11.38318 -20.60843,16.62853 -27.45705,15.60551 -57.9970303,-8.6635 -6.3495997,-5.0458 -12.4830697,-8.9652 -13.6299197,-8.70977 -1.14686,0.25541 -21.81599,18.64463 -45.9314,40.86492 -52.247049,48.1412 -93.562319,86.42741 -99.953129,92.62499 l -4.63172,4.4917 H 26.395059 c 196.474011,0 199.285391,-0.0427 197.701901,-3.00146 z m -388.75554,-24.61138 c 9.95577,-10.0593 29.59778,-28.06474 43.64893,-40.01207 65.132449,-55.38054 92.340339,-81.09702 87.505349,-82.7087 -3.57346,-1.19115 -29.33809,-17.8745 -40.1884,-26.02314 -6.07438,-4.5619 -21.10805,-16.58701 -33.408139,-26.72244 -49.55449,-40.83356 -58.16793,-47.77997 -66.37686,-53.53032 -4.70617,-3.2967 -9.14001,-5.99401 -9.85296,-5.99401 -0.71294,0 -1.29626,56.98808 -1.29626,126.64016 0,69.65208 0.42006,126.64015 0.93347,126.64015 0.5134,0 9.0791,-8.23033 19.03487,-18.28963 z M 241.80334,233.91949 c 1.05578,-19.09446 -0.81001,-33.96799 -4.35136,-34.68768 -2.44661,-0.49723 -149.972061,114.65896 -149.942141,117.04262 0.016,1.28194 34.063381,32.67983 75.660621,69.77308 l 75.63135,67.44229 0.96378,-100.0735 c 0.53008,-55.04042 1.44706,-108.81398 2.03775,-119.49681 z M 43.964559,333.81236 c 3.94101,-2.0969 13.97566,-9.70458 22.29922,-16.90595 8.32357,-7.20138 23.9786,-19.87597 34.788961,-28.16576 10.81036,-8.28981 32.4184,-25.06938 48.01788,-37.28794 15.59947,-12.21856 38.11408,-29.57181 50.03246,-38.56279 11.91838,-8.99098 23.16754,-18.25124 24.99819,-20.57836 l 3.32841,-4.23115 -100.36534,-0.3998 c -55.200951,-0.21989 -145.641161,-0.21989 -200.978231,0 l -100.612889,0.3998 7.39054,7.25167 c 4.0648,3.98842 14.90301,12.70789 24.08494,19.37659 23.99476,17.42709 106.328339,80.22713 119.769199,91.35412 6.26817,5.18909 15.0086697,12.44318 19.4233497,16.12022 21.0344503,17.51987 31.8221803,20.14316 47.8233103,11.62935 z"
       id="path9" />
    <path
       style="fill:#61c3cb;fill-opacity:1;stroke-width:1.55386"
       d="m 351.45738,739.94592 c -4.81213,-3.1417 -11.35114,-28.82381 -11.29883,-44.3763 0.0782,-23.24381 9.85028,-46.42714 27.21632,-64.56815 18.59736,-19.42728 35.2322,-27.70086 66.11749,-32.88452 31.67801,-5.31672 44.93057,-11.47475 64.68324,-30.05621 19.5128,-18.35585 31.37314,-39.52115 38.21097,-68.1892 3.28739,-13.78268 3.40046,-16.87279 2.98376,-81.51332 -0.47234,-73.26656 0.45295,-85.37256 8.33277,-109.02317 12.82323,-38.48763 47.12665,-71.29013 86.38747,-82.60756 12.13573,-3.49829 44.54782,-5.82684 54.67119,-3.92768 7.42722,1.39337 10.82513,4.82846 8.70143,8.79664 -1.45649,2.72145 -3.4389,3.00084 -21.3626,3.01071 -24.69494,0.0136 -40.53065,3.54163 -59.17105,13.18268 -30.89584,15.97963 -53.69102,45.90257 -62.37243,81.8753 -5.29652,21.9469 -6.56601,46.18906 -4.79493,91.561 2.4331,62.32911 -0.80934,89.71175 -13.94093,117.7339 -12.03336,25.67843 -33.29371,47.93171 -57.21786,59.89002 -13.1211,6.5585 -16.17636,7.51177 -45.2398,14.11517 -27.0496,6.14585 -41.92207,12.39865 -53.06735,22.31099 -21.39319,19.02662 -30.34229,48.97509 -23.76298,79.52373 3.93906,18.28963 3.91528,25.46577 -0.0861,25.97738 -1.70926,0.21852 -3.95466,-0.15555 -4.9898,-0.83141 z"
       id="path10" />
    <path
       style="fill:#6cc3cd;fill-opacity:1;stroke-width:1.55386"
       d="M 769.08867,269.16982 C 753.37981,252.85831 707.08915,186.79294 696.2155,165.16628 677.33958,127.62398 676.54558,92.253115 693.83256,59.009321 711.28647,25.444323 749.22963,5.611512 786.01062,10.827993 c 24.68137,3.500457 44.05992,13.062434 61.43064,30.311859 37.93521,37.670301 36.11836,88.167068 -5.45084,151.502028 -15.98228,24.35057 -61.06362,83.90881 -63.51302,83.90881 -1.25434,0 -5.47921,-3.3214 -9.38873,-7.38087 z m 28.33324,-110.72545 c 11.3094,-4.23139 20.23675,-12.27158 25.47907,-22.94712 3.86676,-7.87424 4.36465,-10.58832 4.33978,-23.65645 -0.024,-12.625557 -0.61658,-16.025461 -4.09467,-23.494484 -5.26062,-11.296692 -13.08384,-19.847331 -23.37516,-25.548549 -7.49588,-4.152566 -9.5758,-4.565379 -23.00274,-4.565379 -12.66809,0 -15.98858,0.575361 -23.41148,4.056685 -11.2619,5.28177 -19.22587,13.651169 -23.3154,24.502131 -2.71227,7.196618 -3.1794,11.195617 -2.65402,22.718806 1.02965,22.58191 10.46332,38.57098 27.89729,47.28283 8.21045,4.10279 11.24868,4.7717 21.67349,4.7717 8.33592,0 14.73027,-0.97497 20.46384,-3.12017 z"
       id="path11" />
    <path
       style="fill:#3c91ca;fill-opacity:1;stroke-width:3.10773"
       d="M 387.37696,936.17292 C 304.5721,912.95852 207.74836,832.12569 161.6387,747.71631 127.83624,685.83669 117.79874,629.13885 134.17285,592.57239 c 6.95958,-15.54207 34.72572,-44.25704 48.18577,-49.83238 17.69538,-7.32966 25.78932,2.12857 63.07766,73.70992 17.04273,32.71642 16.97786,38.55376 -0.6059,54.52532 -25.70048,23.34407 -25.90042,23.62564 -25.90042,36.47252 0,10.85104 3.08066,16.24431 24.4888,42.8726 28.99459,36.06464 54.12578,60.87209 79.35855,78.33641 26.18459,18.12305 33.13122,17.39114 56.20093,-5.92187 10.94683,-11.06223 21.11749,-18.64643 25.00559,-18.64643 8.18906,0 87.49099,47.29742 96.97297,57.83687 12.24799,13.61387 8.9223,24.09398 -15.99799,50.41336 -7.0117,7.40536 -18.34247,16.36697 -25.17949,19.91462 -16.10471,8.35661 -50.0255,10.19292 -72.40236,3.91959 z"
       id="path12" />
    <path
       style="fill:#94979c;fill-opacity:1;stroke-width:3.10773"
       d="m 1018.7225,1064.4746 c -38.4582,-1.3817 -125.16394,-4.6291 -192.67947,-7.2165 -67.51553,-2.5874 -156.61121,-5.6004 -197.99044,-6.6956 -67.005,-1.7736 -75.78949,-2.6042 -80.30426,-7.5929 -6.5376,-7.224 -3.59578,-16.4803 6.73349,-21.1867 4.40843,-2.0086 28.50534,-7.9678 53.54867,-13.2427 25.04334,-5.2749 80.9827,-19.2727 124.30968,-31.10609 43.32705,-11.8334 85.28143,-22.28774 93.23203,-23.23174 22.29022,-2.64675 24.36287,-3.76746 16.78401,-9.07591 -11.1559,-7.8139 -14.12602,-22.88973 -8.94688,-45.41293 2.49545,-10.85227 10.91031,-51.19721 18.69968,-89.6554 7.78937,-38.45826 19.66765,-92.29969 26.39612,-119.64776 6.72848,-27.34807 14.54663,-62.18822 17.3736,-77.42255 5.60297,-30.1935 13.82977,-49.53632 23.20217,-54.55225 4.0073,-2.14462 102.4478,-3.21164 296.2967,-3.21164 277.2872,0 290.5264,0.25468 295.439,5.68324 6.3885,7.05911 6.462,21.01533 0.2486,47.14824 -2.6416,11.11014 -11.765,54.46301 -20.2743,96.33975 -8.5093,41.87674 -21.0071,99.00658 -27.7731,126.95526 -6.7659,27.94868 -13.7415,59.82868 -15.5013,70.84438 -4.1354,25.88712 -11.4148,43.81604 -19.7237,48.57889 -5.0292,2.88282 -77.8961,4.17471 -303.4074,5.37889 l -296.78851,1.5849 -32.63122,10.25864 c -17.94715,5.64229 -46.26634,14.41958 -62.9316,19.50504 -16.66519,5.08544 -30.30037,10.47114 -30.30037,11.96824 0,1.497 5.24429,3.5069 11.65401,4.4664 13.02929,1.9503 373.52199,9.3472 465.38309,9.5491 l 59.0471,0.1298 73.0316,-22.3265 c 94.1656,-28.78732 121.2017,-32.12939 121.2017,-14.98248 0,10.73633 -12.5298,18.93298 -43.0255,28.14598 -14.7942,4.4695 -63.8813,20.5963 -109.0825,35.8373 l -82.1839,27.711 -54.5565,-0.5065 c -30.0059,-0.2787 -86.0221,-1.6371 -124.4803,-3.0189 z M 1414.11,934.47997 c 8.4317,-0.17679 15.8169,-14.58773 21.4388,-41.8337 21.4917,-104.1592 44.6081,-212.99566 53.8449,-253.51352 11.9242,-52.3055 12.9762,-62.07076 7.2984,-67.7486 -2.8458,-2.84575 -70.53,-3.72928 -285.686,-3.72928 H 929.0494 l -6.441,8.18844 c -3.5426,4.50364 -6.4411,10.48226 -6.4411,13.28584 0,2.80356 -4.2777,22.5433 -9.5061,43.86609 -5.2284,21.32279 -15.76392,69.53531 -23.41219,107.13886 -7.64821,37.60356 -19.53787,91.87786 -26.42135,120.6095 -13.48668,56.2935 -14.11012,67.07197 -4.16443,71.99798 4.26188,2.11089 98.80447,2.95641 281.24987,2.51532 151.1565,-0.36544 277.2452,-0.71505 280.1969,-0.77693 z"
       id="path13" />
  </g>
</svg>
