<?xml version="1.0" encoding="UTF-8" standalone="no"?>
<!-- Created with Inkscape (http://www.inkscape.org/) -->

<svg
   version="1.1"
   id="svg1"
   width="1920"
   height="1080"
   viewBox="0 0 1920 1080"
   sodipodi:docname="hero-chisiamo.svg"
   inkscape:version="1.4.2 (f4327f4, 2025-05-13)"
   xmlns:inkscape="http://www.inkscape.org/namespaces/inkscape"
   xmlns:sodipodi="http://sodipodi.sourceforge.net/DTD/sodipodi-0.dtd"
   xmlns="http://www.w3.org/2000/svg"
   xmlns:svg="http://www.w3.org/2000/svg">
  <defs
     id="defs1" />
  <sodipodi:namedview
     id="namedview1"
     pagecolor="#ffffff"
     bordercolor="#000000"
     borderopacity="0.25"
     inkscape:showpageshadow="2"
     inkscape:pageopacity="0.0"
     inkscape:pagecheckerboard="0"
     inkscape:deskcolor="#d1d1d1"
     inkscape:zoom="0.35888672"
     inkscape:cx="702.17143"
     inkscape:cy="369.19728"
     inkscape:window-width="1920"
     inkscape:window-height="974"
     inkscape:window-x="-11"
     inkscape:window-y="-11"
     inkscape:window-maximized="1"
     inkscape:current-layer="g1" />
  <g
     inkscape:groupmode="layer"
     inkscape:label="Image"
     id="g1">
    <g
       id="g22"
       transform="matrix(2.0188716,0,0,1.9637819,-468.28193,-462.80215)">
      <path
         style="fill:#54b8cc;fill-opacity:1;stroke-width:0.985139"
         d="m 409.24275,481.28049 c -2.21273,-0.47656 -7.44087,-2.01376 -11.61807,-3.41601 -38.89918,-13.05802 -67.5278,-47.67412 -73.47944,-88.84715 -1.4712,-10.17767 -1.21843,-30.5031 0.50237,-40.39528 7.08814,-40.7469 34.53399,-73.83245 71.37837,-86.04551 12.81947,-4.24937 38.66689,-4.91872 54.18265,-1.40313 8.10215,1.8358 24.84302,9.79459 33.35862,15.85905 13.76302,9.80146 26.12431,24.98501 34.13016,41.92257 20.4448,43.25399 12.58591,95.89152 -19.63105,131.48545 -11.17679,12.34833 -32.1278,24.71805 -48.84286,28.83739 -9.34764,2.30367 -33.06655,3.49173 -39.98075,2.00262 z m 37.91696,-12.35058 c 7.34289,-1.78018 20.53489,-7.7589 27.35556,-12.39778 6.80103,-4.6255 19.52033,-17.14134 24.44707,-24.056 8.75214,-12.28359 15.25981,-28.96555 17.75357,-45.51001 7.80187,-51.76041 -20.46481,-100.6302 -66.01471,-114.13171 -11.55317,-3.42449 -29.661,-4.35642 -41.40936,-2.13115 -18.28818,3.46399 -33.37215,11.86955 -46.85193,26.10831 -31.86368,33.65774 -37.47951,88.55572 -13.2606,129.62988 12.14066,20.59001 39.34346,39.77875 62.3758,43.99963 6.62237,1.21361 28.13086,0.30071 35.6046,-1.51117 z"
         id="path17" />
      <path
         style="fill:#54b8cc;fill-opacity:1;stroke-width:0.985139"
         d="m 259.64295,751.10764 c -6.47914,-1.08421 -12.05696,-5.21639 -15.21018,-11.26807 l -2.56653,-4.92569 -0.007,-48.7644 c -0.008,-53.73703 0.0325,-54.18285 6.62842,-72.9003 9.11785,-25.87411 21.39182,-42.01236 47.15431,-62.00017 19.85568,-15.40501 58.42613,-30.51655 89.38582,-35.02052 13.45496,-1.9574 50.81142,-2.81908 70.59939,-1.62845 14.20228,0.85453 19.07765,1.60226 32.08122,4.92025 24.59313,6.27519 49.47232,16.62344 54.09507,22.5003 1.7851,2.26939 1.811,2.61697 0.35998,4.83149 -2.50754,3.82699 -5.58685,3.97747 -10.95122,0.53516 -6.97749,-4.47745 -15.96282,-8.31263 -29.89092,-12.75829 -27.15319,-8.66691 -43.10786,-10.60741 -79.68143,-9.69131 -33.06938,0.82833 -45.28375,2.72269 -71.4226,11.07712 -30.69681,9.81124 -63.16416,32.31062 -78.42941,54.35039 -9.18243,13.25748 -16.03567,30.51557 -17.58186,44.2753 -1.40838,12.53339 -1.59976,96.61436 -0.22756,99.97562 0.59672,1.46169 2.3039,3.4566 3.79372,4.43312 2.55562,1.67514 8.80998,1.80462 110.62585,2.29024 59.3544,0.2831 108.6492,0.8679 109.544,1.29957 3.40755,1.64387 2.89851,7.18366 -0.78892,8.58562 -3.03734,1.15479 -210.57688,1.04318 -217.50987,-0.11698 z"
         id="path18" />
      <path
         style="fill:#378ec9;fill-opacity:1;stroke-width:0.985139"
         d="m 689.1049,487.23039 c -40.23888,-6.52685 -74.88231,-36.10866 -88.92765,-75.93476 -5.39335,-15.29305 -6.56312,-23.15184 -6.59864,-44.33126 -0.0441,-26.31111 2.26335,-36.9821 12.67498,-58.61579 13.78219,-28.63719 37.43989,-48.87256 67.89432,-58.07273 42.34982,-12.79372 88.02196,2.72605 115.81554,39.35509 10.38924,13.69193 20.23726,37.58265 22.74078,55.1678 1.50813,10.59336 1.23743,34.45715 -0.50416,44.44419 -8.00473,45.90251 -42.3909,84.67322 -84.69787,95.49759 -10.71136,2.74054 -29.38616,3.95151 -38.3973,2.48987 z"
         id="path19" />
      <path
         style="fill:#378ec9;fill-opacity:1;stroke-width:0.985139"
         d="m 573.30701,774.82626 c -58.57987,-0.46692 -63.79424,-0.64361 -66.2369,-2.24453 -6.38434,-4.18429 -6.0943,-1.31129 -6.4494,-63.88466 l -0.3226,-56.84505 4.06318,-12.15916 c 8.27523,-24.76379 20.99008,-43.9106 41.32707,-62.23285 28.1432,-25.35512 75.70698,-46.14354 122.43596,-53.51236 15.26774,-2.40761 52.34067,-2.41301 69.65967,-0.0101 41.30125,5.7302 77.39714,18.55347 106.48034,37.82777 31.17597,20.66123 53.18751,49.72676 61.12441,80.71282 2.90982,11.36007 3.86384,30.34215 3.88017,77.20367 0.0145,41.53008 -0.005,41.94488 -2.20195,46.24388 -4.13973,8.10162 -4.81963,8.30871 -29.62375,9.02314 -24.78462,0.71388 -208.48573,0.63987 -304.1362,-0.12252 z"
         id="path20" />
      <path
         style="fill:#8f9fa8;fill-opacity:1;stroke-width:0.696599"
         d="m 970.01361,478.9081 c -14.85464,-1.33241 -31.0102,-7.29371 -43.53742,-16.06505 -7.86376,-5.50605 -24.78052,-22.72457 -29.57921,-30.10682 -7.93348,-12.20478 -14.58074,-28.84369 -17.59171,-44.03419 -1.92294,-9.70128 -1.72134,-35.05134 0.3551,-44.6548 3.66889,-16.9684 11.23253,-33.82234 21.26068,-47.37483 1.95248,-2.63867 6.69868,-7.94084 10.54711,-11.7826 10.73267,-10.71408 23.22211,-18.50388 37.70629,-23.51782 11.48143,-3.97449 17.84146,-4.98034 31.63643,-5.00335 13.56029,-0.0226 18.00134,0.62497 29.18762,4.25612 17.1578,5.56956 30.2888,13.62109 42.9229,26.31904 15.7863,15.86605 25.2225,33.67044 30.0808,56.75689 1.6244,7.71934 1.8513,10.41677 1.8806,22.3619 0.036,14.60175 -0.8741,21.799 -4.2277,33.43673 -10.2027,35.40617 -35.3301,63.15921 -67.4524,74.50058 -8.4429,2.98092 -13.95486,4.06556 -24.90619,4.90099 -9.91976,0.75673 -9.92663,0.75673 -18.2829,0.007 z"
         id="path21" />
      <path
         style="fill:#8f9fa8;fill-opacity:1;stroke-width:0.696599"
         d="m 924.37303,710.10128 c -0.0143,-35.98549 -0.7154,-54.42215 -2.44968,-64.41602 -1.5144,-8.72683 -6.57726,-23.42074 -11.50697,-33.3966 -10.63906,-21.52946 -26.01027,-39.68707 -47.16211,-55.71139 -4.88182,-3.6984 -8.9749,-6.99582 -9.09574,-7.32761 -0.2937,-0.80643 4.04664,-3.49798 14.1834,-8.79546 20.71669,-10.82656 45.1225,-19.54476 66.84174,-23.87707 24.89728,-4.96623 55.19025,-5.46664 83.59183,-1.38085 52.7027,7.58169 103.7511,34.00668 129.4645,67.01679 11.1661,14.3347 17.0016,26.00897 22.4041,44.82119 l 2.428,8.45466 -0.038,20.45418 c -0.021,11.2498 -0.2902,33.47929 -0.5983,49.39886 -0.6227,32.17574 -0.6491,32.35048 -5.4387,36.00373 l -2.3961,1.8276 -120.1073,0.31599 -120.1072,0.316 z"
         id="path22" />
    </g>
  </g>
</svg>
