<?xml version="1.0" encoding="UTF-8" standalone="no"?>
<!-- Created with Inkscape (http://www.inkscape.org/) -->

<svg
   version="1.1"
   id="svg1"
   width="1920"
   height="1080"
   viewBox="0 0 1919.9999 1080"
   sodipodi:docname="hero-contatti.svg"
   inkscape:version="1.4.2 (f4327f4, 2025-05-13)"
   xmlns:inkscape="http://www.inkscape.org/namespaces/inkscape"
   xmlns:sodipodi="http://sodipodi.sourceforge.net/DTD/sodipodi-0.dtd"
   xmlns="http://www.w3.org/2000/svg"
   xmlns:svg="http://www.w3.org/2000/svg">
  <defs
     id="defs1" />
  <sodipodi:namedview
     id="namedview1"
     pagecolor="#ffffff"
     bordercolor="#000000"
     borderopacity="0.25"
     inkscape:showpageshadow="2"
     inkscape:pageopacity="0.0"
     inkscape:pagecheckerboard="0"
     inkscape:deskcolor="#d1d1d1"
     inkscape:zoom="0.27068931"
     inkscape:cx="849.68261"
     inkscape:cy="840.44693"
     inkscape:window-width="1920"
     inkscape:window-height="974"
     inkscape:window-x="-11"
     inkscape:window-y="-11"
     inkscape:window-maximized="1"
     inkscape:current-layer="g1" />
  <g
     inkscape:groupmode="layer"
     inkscape:label="Image"
     id="g1"
     style="display:inline"
     transform="translate(302.16631)">
    <path
       style="fill:#61c3cb;fill-opacity:1;stroke-width:2.05924"
       d="m -24.979066,422.60926 c -169.022324,-0.76327 -235.150064,-1.70756 -238.873014,-3.41102 -7.23137,-3.30879 -13.52238,-10.81728 -16.14248,-19.26656 -2.63397,-8.49392 -2.51931,6.22139 -1.50382,-193.00657 l 0.8106,-159.02893 4.81416,-8.799967 c 3.50121,-6.39998 7.62221,-10.203982 15.1104,-13.948084 L -250.46695,20 22.383706,20.721727 C 329.59341,21.534326 307.856,20.350487 315.97518,36.710883 c 3.82743,7.712447 3.97019,14.331436 3.97019,184.066017 v 176.0659 l -4.82742,8.42247 c -2.65506,4.63239 -7.29485,9.88004 -10.31063,11.66151 -8.36677,4.94239 -34.51722,7.76872 -66.86615,7.22692 -16.05743,-0.26896 -134.37152,-0.96395 -262.920236,-1.54444 z M 279.86537,400.07252 c -2.21552,-4.13974 -8.48502,-9.932 -78.3269,-72.36433 -23.21804,-20.75486 -54.89125,-50.47302 -70.3849,-66.04039 -15.49363,-15.5674 -31.904996,-30.20966 -36.469661,-32.53837 -15.161462,-7.73481 -20.368274,-6.04779 -46.559583,15.08547 -27.311165,22.03683 -36.387247,20.68108 -76.860123,-11.48124 -8.414759,-6.68691 -16.54309,-11.88106 -18.062944,-11.54255 -1.519867,0.33848 -28.911475,24.70865 -60.870239,54.15592 -69.24001,63.79876 -123.99275,114.53727 -132.46213,122.75056 l -6.13815,5.9526 H 17.862429 c 260.375691,0 264.101451,-0.0566 262.002941,-3.97767 z m -515.19532,-32.61604 c 13.19381,-13.33101 39.22423,-37.19258 57.84541,-53.02569 86.316286,-73.39264 122.373335,-107.47321 115.965802,-109.60908 -4.735701,-1.57856 -38.880082,-23.68804 -53.259372,-34.48697 -8.05003,-6.04562 -27.97328,-21.98181 -44.27388,-35.41371 -65.67172,-54.114363 -77.08661,-63.32004 -87.96543,-70.940648 -6.23682,-4.368926 -12.11273,-7.943516 -13.05756,-7.943516 -0.94482,0 -1.71786,75.523024 -1.71786,167.828914 0,92.30589 0.55668,167.82889 1.23707,167.82889 0.68038,0 12.03201,-10.90718 25.22582,-24.23819 z M 303.33062,101.3404 C 304.72978,76.035609 302.25716,56.324576 297.56401,55.370812 294.32166,54.711862 98.814676,207.32173 98.854328,210.48066 c 0.0212,1.69888 45.142232,43.30869 100.268662,92.46624 l 100.22987,89.37738 1.27725,-132.62164 c 0.70248,-72.9419 1.9177,-144.2049 2.70051,-158.36224 z M 41.146276,233.72266 c 5.222793,-2.7789 18.521137,-12.86092 29.551872,-22.40448 11.030748,-9.54357 31.777462,-26.34048 46.103802,-37.32646 14.32635,-10.98601 42.96224,-33.223 63.63533,-49.41556 20.67308,-16.19255 50.5104,-39.189813 66.30514,-51.105041 15.79475,-11.915228 30.70261,-24.187317 33.12867,-27.271315 l 4.41095,-5.6073 -133.00841,-0.529832 c -73.154642,-0.291407 -193.009839,-0.291407 -266.34487,0 l -133.33647,0.529832 9.79426,9.610221 c 5.38684,5.285623 19.7501,16.841035 31.91838,25.678679 31.79888,23.095118 140.910827,106.320396 158.723224,121.066356 8.306841,6.8768 19.890122,16.49023 25.740643,21.3632 27.8757455,23.21807 42.172103,26.69457 63.377479,15.4117 z"
       id="path9" />
    <path
       style="fill:#61c3cb;fill-opacity:1;stroke-width:1.55386"
       d="m 366.23447,691.92038 c -4.81213,-3.1417 -11.35114,-28.82381 -11.29883,-44.3763 0.0782,-23.24381 9.85028,-46.42714 27.21632,-64.56815 18.59736,-19.42728 35.2322,-27.70086 66.11749,-32.88452 31.67801,-5.31672 44.93057,-11.47475 64.68324,-30.05621 19.5128,-18.35585 31.37314,-39.52115 38.21097,-68.1892 3.28739,-13.78268 3.40046,-16.87279 2.98376,-81.51332 -0.47234,-73.26656 0.45295,-85.37256 8.33277,-109.02317 12.82323,-38.48763 47.12665,-71.29013 86.38747,-82.60756 12.13573,-3.49829 44.54782,-5.82684 54.67119,-3.92768 7.42722,1.39337 10.82513,4.82846 8.70143,8.79664 -1.45649,2.72145 -3.4389,3.00084 -21.3626,3.01071 -24.69494,0.0136 -40.53065,3.54163 -59.17105,13.18268 -30.89584,15.97963 -53.69102,45.90257 -62.37243,81.8753 -5.29652,21.9469 -6.56601,46.18906 -4.79493,91.561 2.4331,62.32911 -0.80934,89.71175 -13.94093,117.7339 -12.03336,25.67843 -33.29371,47.93171 -57.21786,59.89002 -13.1211,6.5585 -16.17636,7.51177 -45.2398,14.11517 -27.0496,6.14585 -41.92207,12.39865 -53.06735,22.31099 -21.39319,19.02662 -30.34229,48.97509 -23.76298,79.52373 3.93906,18.28963 3.91528,25.46577 -0.0861,25.97738 -1.70926,0.21852 -3.95466,-0.15555 -4.9898,-0.83141 z"
       id="path10" />
    <path
       style="fill:#6cc3cd;fill-opacity:1;stroke-width:1.55386"
       d="m 868.83402,312.41827 c -15.70886,-16.31151 -61.99952,-82.37688 -72.87317,-104.00354 -18.87592,-37.5423 -19.66992,-72.91316 -2.38294,-106.15696 17.45391,-33.564997 55.39707,-53.397808 92.17806,-48.181327 24.68137,3.500457 44.05992,13.062434 61.43064,30.311859 37.93521,37.670298 36.11836,88.167068 -5.45084,151.502028 -15.98228,24.35057 -61.06362,83.90881 -63.51302,83.90881 -1.25434,0 -5.47921,-3.3214 -9.38873,-7.38087 z m 28.33324,-110.72545 c 11.3094,-4.23139 20.23675,-12.27158 25.47907,-22.94712 3.86676,-7.87424 4.36465,-10.58832 4.33978,-23.65645 -0.024,-12.62556 -0.61658,-16.02546 -4.09467,-23.49448 -5.26062,-11.2967 -13.08384,-19.84733 -23.37516,-25.54855 -7.49588,-4.15257 -9.5758,-4.56538 -23.00274,-4.56538 -12.66809,0 -15.98858,0.57536 -23.41148,4.05668 -11.2619,5.28177 -19.22587,13.65117 -23.3154,24.50213 -2.71227,7.19662 -3.1794,11.19562 -2.65402,22.71881 1.02965,22.58191 10.46332,38.57098 27.89729,47.28283 8.21045,4.10279 11.24868,4.7717 21.67349,4.7717 8.33592,0 14.73027,-0.97497 20.46384,-3.12017 z"
       id="path11" />
    <path
       style="fill:#3c91ca;fill-opacity:1;stroke-width:3.10773"
       d="M 254.38316,899.23019 C 171.5783,876.01579 74.75456,795.18296 28.6449,710.77358 -5.1575601,648.89396 -15.19506,592.19612 1.1790499,555.62966 8.1386299,540.08759 35.90477,511.37262 49.36482,505.79728 c 17.69538,-7.32966 25.78932,2.12857 63.07766,73.70992 17.04273,32.71642 16.97786,38.55376 -0.6059,54.52532 -25.70048,23.34407 -25.90042,23.62564 -25.90042,36.47252 0,10.85104 3.08066,16.24431 24.4888,42.8726 28.99459,36.06464 54.12578,60.87209 79.35855,78.33641 26.18459,18.12305 33.13122,17.39114 56.20093,-5.92187 10.94683,-11.06223 21.11749,-18.64643 25.00559,-18.64643 8.18906,0 87.49099,47.29742 96.97297,57.83687 12.24799,13.61387 8.9223,24.09398 -15.99799,50.41336 -7.0117,7.40536 -18.34247,16.36697 -25.17949,19.91462 -16.10471,8.35661 -50.0255,10.19292 -72.40236,3.91959 z"
       id="path12" />
    <path
       style="fill:#94979c;fill-opacity:1;stroke-width:3.10773"
       d="m 1100.7225,1056.4747 c -38.4582,-1.3817 -125.16394,-4.6291 -192.67947,-7.2165 -67.51553,-2.5874 -156.61121,-5.6004 -197.99044,-6.6956 -67.005,-1.7736 -75.78949,-2.6042 -80.30426,-7.5929 -6.5376,-7.224 -3.59578,-16.4803 6.73349,-21.1867 4.40843,-2.0086 28.50534,-7.9678 53.54867,-13.2427 25.04334,-5.27493 80.9827,-19.27273 124.30968,-31.10612 43.32705,-11.8334 85.28143,-22.28774 93.23203,-23.23174 22.29022,-2.64675 24.36287,-3.76746 16.78401,-9.07591 -11.1559,-7.8139 -14.12602,-22.88973 -8.94688,-45.41293 2.49545,-10.85227 10.91031,-51.19721 18.69968,-89.6554 7.78937,-38.45826 19.66765,-92.29969 26.39612,-119.64776 6.72848,-27.34807 14.54663,-62.18822 17.3736,-77.42255 5.60297,-30.1935 13.82977,-49.53632 23.20217,-54.55225 4.0073,-2.14462 102.4478,-3.21164 296.2967,-3.21164 277.2872,0 290.5264,0.25468 295.439,5.68324 6.3885,7.05911 6.462,21.01533 0.2486,47.14824 -2.6416,11.11014 -11.765,54.46301 -20.2743,96.33975 -8.5093,41.87674 -21.0071,99.00658 -27.7731,126.95526 -6.7659,27.94868 -13.7415,59.82868 -15.5013,70.84438 -4.1354,25.88712 -11.4148,43.81604 -19.7237,48.57889 -5.0292,2.88282 -77.8961,4.17471 -303.4074,5.37889 l -296.78851,1.5849 -32.63122,10.25864 c -17.94715,5.64229 -46.26634,14.41958 -62.9316,19.50504 -16.66519,5.08544 -30.30037,10.47114 -30.30037,11.96824 0,1.497 5.24429,3.5069 11.65401,4.4664 13.02929,1.9503 373.52199,9.34723 465.38309,9.54913 l 59.0471,0.1298 73.0316,-22.32653 c 94.1656,-28.78732 121.2017,-32.12939 121.2017,-14.98248 0,10.73633 -12.5298,18.93298 -43.0255,28.14598 -14.7942,4.46953 -63.8813,20.59633 -109.0825,35.83733 l -82.1839,27.711 -54.5565,-0.5065 c -30.0059,-0.2787 -86.0221,-1.6371 -124.4803,-3.0189 z M 1496.11,926.48004 c 8.4317,-0.17679 15.8169,-14.58773 21.4388,-41.8337 21.4917,-104.1592 44.6081,-212.99566 53.8449,-253.51352 11.9242,-52.3055 12.9762,-62.07076 7.2984,-67.7486 -2.8458,-2.84575 -70.53,-3.72928 -285.686,-3.72928 h -281.9567 l -6.441,8.18844 c -3.5426,4.50364 -6.4411,10.48226 -6.4411,13.28584 0,2.80356 -4.2777,22.5433 -9.5061,43.86609 -5.2284,21.32279 -15.76392,69.53531 -23.41219,107.13886 -7.64821,37.60356 -19.53787,91.87786 -26.42135,120.6095 -13.48668,56.2935 -14.11012,67.07197 -4.16443,71.99798 4.26188,2.11089 98.80447,2.95641 281.24987,2.51532 151.1565,-0.36544 277.2452,-0.71505 280.1969,-0.77693 z"
       id="path13" />
  </g>
</svg>
