<?xml version="1.0" encoding="UTF-8" standalone="no"?>
<!-- Created with Inkscape (http://www.inkscape.org/) -->

<svg
   version="1.1"
   id="svg1"
   width="377.92001"
   height="273.12"
   viewBox="0 0 377.92001 273.12"
   sodipodi:docname="logotrea.svg"
   inkscape:version="1.4.2 (f4327f4, 2025-05-13)"
   xmlns:inkscape="http://www.inkscape.org/namespaces/inkscape"
   xmlns:sodipodi="http://sodipodi.sourceforge.net/DTD/sodipodi-0.dtd"
   xmlns="http://www.w3.org/2000/svg"
   xmlns:svg="http://www.w3.org/2000/svg">
  <defs
     id="defs1" />
  <sodipodi:namedview
     id="namedview1"
     pagecolor="#ffffff"
     bordercolor="#000000"
     borderopacity="0.25"
     inkscape:showpageshadow="2"
     inkscape:pageopacity="0.0"
     inkscape:pagecheckerboard="0"
     inkscape:deskcolor="#d1d1d1"
     inkscape:zoom="1.9029126"
     inkscape:cx="160.28061"
     inkscape:cy="105.89031"
     inkscape:window-width="1920"
     inkscape:window-height="974"
     inkscape:window-x="-11"
     inkscape:window-y="-11"
     inkscape:window-maximized="1"
     inkscape:current-layer="g1" />
  <g
     inkscape:groupmode="layer"
     inkscape:label="Image"
     id="g1">
    <path
       style="fill:#292b37;fill-opacity:1;stroke-width:0.52551"
       d="m 107.71869,158.23558 c -0.9443,-0.69048 -1.00117,-1.62187 -1.02009,-16.70549 -0.0182,-14.4837 -0.1084,-16.10936 -0.96715,-17.42231 -0.52092,-0.79643 -1.54136,-1.67398 -2.26763,-1.95011 -0.76377,-0.29039 -10.706526,-0.50206 -23.582943,-0.50206 -19.537899,0 -22.3635,-0.10106 -23.088238,-0.8258 -1.137797,-1.1378 -1.185402,-9.25727 -0.05975,-10.19147 0.589601,-0.48933 14.212354,-0.62902 59.143211,-0.60646 32.10744,0.0161 58.60316,0.16897 58.87936,0.33967 0.74836,0.46251 0.63471,9.89032 -0.12842,10.65345 -0.47081,0.47081 -6.32398,0.63061 -23.09772,0.63061 -16.29964,0 -22.84537,0.17235 -23.84502,0.62782 -2.73136,1.24449 -2.87563,2.20032 -2.87563,19.05272 0,19.23056 0.82541,17.63069 -9.09598,17.63069 -5.14505,0 -7.25832,-0.19332 -7.994,-0.73126 z"
       id="path8" />
    <path
       style="fill:#292b37;fill-opacity:1;stroke-width:0.52551"
       d="m 132.39763,158.22033 c -0.96455,-0.70586 -1.02008,-1.49159 -1.02008,-14.43323 0,-12.34585 0.0903,-13.77698 0.92165,-14.60791 0.85021,-0.84978 2.49749,-0.91333 21.25109,-0.81987 17.63297,0.0879 20.43825,0.21013 21.14978,0.92168 1.08643,1.08645 0.93374,9.04 -0.19522,10.16896 -0.60474,0.60474 -2.81591,0.72713 -11.60404,0.64229 -14.36818,-0.1387 -13.39316,-0.8059 -13.39316,9.16476 0,10.07445 0.34158,9.70983 -9.09598,9.70983 -5.21388,0 -7.25358,-0.19 -8.01404,-0.74651 z"
       id="path9" />
    <path
       style="fill:#292b37;fill-opacity:1;stroke-width:0.52551"
       d="m 184.42876,158.51616 c -2.0491,-0.37544 -2.33947,-1.10791 -2.33947,-5.9013 0,-4.16476 0.11309,-4.70729 1.09032,-5.23028 0.75582,-0.4045 8.06185,-0.56615 23.81377,-0.52687 21.85652,0.0545 22.75861,0.0178 23.64561,-0.96234 1.34805,-1.48958 0.95063,-4.32056 -0.72828,-5.18775 -1.02147,-0.52761 -6.31992,-0.65919 -23.81447,-0.5914 -19.3455,0.075 -22.61086,-0.023 -23.28625,-0.69836 -1.05971,-1.05971 -1.09726,-9.20275 -0.0473,-10.25272 0.58737,-0.58737 4.9204,-0.71356 23.66139,-0.6891 22.32998,0.0292 22.97065,0.002 24.00275,-1.03044 1.26859,-1.26859 1.3607,-3.02534 0.24233,-4.62204 l -0.81806,-1.16795 h -23.0112 c -26.98549,0 -24.75063,0.55548 -24.75063,-6.15178 0,-2.95288 0.21867,-4.41121 0.72438,-4.83091 1.06615,-0.88483 56.73611,-0.96988 58.9187,-0.09 2.595,1.04613 4.93463,3.11788 6.1591,5.45391 1.07006,2.04145 1.18137,3.20482 1.5181,15.86624 0.20687,7.77871 0.1563,14.79491 -0.11742,16.29082 -0.75355,4.11817 -2.88268,7.08242 -6.36705,8.86439 l -2.97866,1.52334 -27.24599,0.0612 c -14.9853,0.0337 -27.70756,-0.0233 -28.27169,-0.12669 z"
       id="path10" />
    <path
       style="fill:#292b37;fill-opacity:1;stroke-width:0.52551"
       d="m 273.04667,158.57288 c -10.32251,-0.0986 -15.69134,-0.341 -16.15944,-0.72949 -0.56369,-0.46781 -0.701,-4.84628 -0.701,-22.3522 0,-23.98951 0.0302,-24.22941 3.18572,-25.32944 2.69874,-0.94079 12.92888,-0.23081 15.46989,1.07362 2.73402,1.40351 2.51745,1.19713 25.35586,24.16373 23.442,23.57357 22.87528,22.57577 13.24772,23.32462 -3.44553,0.268 -4.93064,0.16427 -6.39245,-0.44651 -1.23643,-0.51662 -6.55223,-5.51088 -15.15868,-14.24177 -11.15008,-11.31132 -13.49148,-13.44615 -14.74722,-13.44615 -2.63398,0 -3.21154,1.66898 -3.00789,8.69191 0.21821,7.52519 0.28262,7.5989 6.63972,7.5989 h 4.4224 l 3.9341,3.80995 c 4.33456,4.19778 5.03554,5.17765 4.57064,6.38917 -0.29928,0.7799 -3.5736,2.01357 -4.67543,1.76156 -0.28903,-0.0661 -7.4818,-0.18666 -15.98394,-0.2679 z"
       id="path11" />
    <path
       style="fill:#315b85;fill-opacity:1;stroke-width:0.52551"
       d="M 141.09949,272.65511 C 120.14844,271.20376 104.06344,268.2812 87.497449,262.91592 57.257453,253.122 33.693044,238.27392 18.285624,219.30512 13.552001,213.47734 10.933946,209.35997 7.8672703,202.92036 3.0775427,192.86258 1.0028641,185.19066 0.44546933,175.47541 -0.98449428,150.55152 13.12248,124.15331 37.730636,105.70415 c 5.799608,-4.34807 16.464328,-11.375068 17.263686,-11.375068 0.225308,0 -0.03933,1.047444 -0.588093,2.327658 -13.883006,32.38773 0.262393,69.0849 36.507037,94.70958 23.658784,16.72657 55.089244,27.92257 88.285714,31.44868 40.04343,4.25339 82.75357,-2.83996 115.28262,-19.14627 3.50515,-1.75708 6.37299,-3.05393 6.37299,-2.88189 0,1.40102 -7.62149,13.38992 -11.99998,18.87643 -18.88278,23.66123 -53.89377,42.11331 -93.62757,49.34516 -16.60048,3.02142 -40.20098,4.61143 -54.12755,3.64668 z"
       id="path12" />
    <path
       style="fill:#315b85;fill-opacity:1;stroke-width:0.52551"
       d="m 307.18504,230.63195 c -0.0134,-0.3259 0.34364,-0.89792 0.79337,-1.27117 0.44973,-0.37324 2.47578,-3.15824 4.50233,-6.18889 20.13349,-30.10902 21.47383,-66.09087 3.62261,-97.2502 C 307.65614,111.17708 294.52918,97.219493 278.25121,85.674411 251.91438,66.99512 217.40867,54.731808 178.85259,50.348186 168.77192,49.202068 138.75614,49.040671 129.80102,50.084433 109.83954,52.41104 95.008651,55.551737 79.352041,60.767881 60.250725,67.13166 39.563817,77.616133 26.935248,87.333594 25.236401,88.640827 23.734676,89.598621 23.598081,89.462027 23.211568,89.075513 29.94924,83.279023 36.385574,78.46081 65.702894,56.513991 105.13513,43.092188 148.71042,40.228081 c 40.9594,-2.69217 85.88535,6.255685 118.96711,23.694555 39.4659,20.804236 63.45826,50.369274 69.23996,85.322264 1.15277,6.96902 1.17081,19.89528 0.0371,26.54451 -2.53922,14.89188 -9.2161,30.0328 -18.81778,42.67241 -4.60645,6.06392 -10.91463,13.07389 -10.95172,12.17013 z"
       id="path13" />
    <path
       style="fill:#315b85;fill-opacity:1;stroke-width:0.52551"
       d="m 327.15424,210.89562 c -0.0133,-0.19771 1.24659,-2.04864 2.79971,-4.11317 6.13404,-8.15388 12.22636,-20.56029 15.22257,-30.99929 4.34311,-15.13166 4.24185,-32.49381 -0.28153,-48.27314 C 336.00188,96.48741 311.07911,69.896199 273.82763,51.685081 239.71116,35.006581 198.16553,27.063589 158.87726,29.708048 116.88655,32.534406 76.808266,45.744462 48.902476,65.956433 c -2.829662,2.049505 -5.24575,3.625463 -5.369084,3.502129 -0.259044,-0.259043 8.052162,-7.428526 12.6962,-10.952103 C 65.017013,51.839165 78.183724,44.233577 89.615399,39.221557 140.46084,16.929259 199.84319,13.783503 253.89825,30.518739 c 39.12037,12.111512 70.34099,33.716388 88.15579,61.004381 22.80618,34.93358 20.65849,75.68293 -5.75653,109.22178 -3.70794,4.70794 -9.10632,10.70113 -9.14327,10.15072 z"
       id="path14" />
    <path
       style="fill:#315b85;fill-opacity:1;stroke-width:0.52551"
       d="m 346.5983,191.40967 c -0.0134,-0.22086 0.99993,-1.65905 2.25178,-3.19599 6.90261,-8.47455 13.91241,-23.36748 17.10507,-36.34123 3.85573,-15.66819 2.55674,-35.47314 -3.32613,-50.71174 C 354.77673,80.820658 340.4701,63.032894 319.41004,47.425572 291.53448,26.767382 253.06434,13.524106 211.28827,10.204851 201.23055,9.4057299 174.3602,9.8776911 165.27296,11.013082 127.46274,15.737219 94.070603,27.965411 68.014039,46.629273 65.651876,48.321248 63.624664,49.611058 63.509123,49.495518 63.223008,49.209403 68.921391,44.268582 74.359694,40.087459 100.9667,19.631228 136.49297,6.354018 177.62245,1.4951292 c 11.18197,-1.32099727 39.80308,-1.32028157 50.97449,0.00127 42.13754,4.9847902 77.24011,18.2786908 104.83929,39.7042988 5.83034,4.526171 16.57302,14.969685 20.86506,20.283991 11.09683,13.739859 18.61583,29.251059 21.79908,44.970061 1.70599,8.42425 1.70871,23.88447 0.006,31.80343 -3.43678,15.97987 -9.12755,28.37853 -18.96832,41.32679 -3.84902,5.06447 -10.49703,12.52325 -10.53934,11.8247 z"
       id="path15" />
  </g>
</svg>
