<?xml version="1.0" encoding="UTF-8" standalone="no"?>
<svg
   version="1.1"
   id="Layer_1"
   x="0px"
   y="0px"
   width="100%"
   viewBox="0 0 1024 1024"
   enable-background="new 0 0 1024 1024"
   xml:space="preserve"
   sodipodi:docname="logo.svg"
   inkscape:export-filename="darklogo.png"
   inkscape:export-xdpi="96"
   inkscape:export-ydpi="96"
   inkscape:version="1.4.2 (f4327f4, 2025-05-13)"
   xmlns:inkscape="http://www.inkscape.org/namespaces/inkscape"
   xmlns:sodipodi="http://sodipodi.sourceforge.net/DTD/sodipodi-0.dtd"
   xmlns="http://www.w3.org/2000/svg"
   xmlns:svg="http://www.w3.org/2000/svg"><defs
   id="defs1" /><sodipodi:namedview
   id="namedview1"
   pagecolor="#ffffff"
   bordercolor="#000000"
   borderopacity="0.25"
   inkscape:showpageshadow="2"
   inkscape:pageopacity="0.0"
   inkscape:pagecheckerboard="0"
   inkscape:deskcolor="#d1d1d1"
   inkscape:zoom="0.50754247"
   inkscape:cx="472.86684"
   inkscape:cy="521.13866"
   inkscape:window-width="1920"
   inkscape:window-height="974"
   inkscape:window-x="-11"
   inkscape:window-y="-11"
   inkscape:window-maximized="1"
   inkscape:current-layer="Layer_1" />
<path
   fill="#000000"
   opacity="1"
   stroke="none"
   d="m 11.25849,662.54706 c 5.57764,-2.57837 10.933241,-2.7443 16.33976,-2.74279 82.05185,0.023 164.10373,0.0333 246.15558,0.0145 5.12473,-10e-4 10.25295,-0.19223 15.37305,-0.433 4.48152,-0.21072 8.2135,-1.94289 8.93925,-6.79245 0.69424,-4.63816 -2.73855,-6.98936 -6.35992,-8.57214 -10.85733,-4.7453 -22.51194,-6.81666 -33.95734,-9.43905 C 204.22495,622.31965 150.64823,610.28738 97.085749,598.19296 77.405405,593.74908 57.675948,589.51611 38.037146,584.89693 22.98854,581.35735 16.652996,574.508 16.750471,562.79412 c 0.105401,-12.67306 9.736934,-21.50991 22.20446,-19.06228 25.050741,4.91805 49.998273,10.3909 74.907499,15.99456 59.55598,13.39786 119.06509,27.0043 178.59235,40.52965 0.4992,0.11339 0.9836,0.37317 1.48228,0.39487 6.01468,0.262 13.17293,2.43243 16.01661,-5.19033 2.80988,-7.53223 -3.70117,-10.49747 -8.83314,-13.14803 C 260.83005,561.50351 220.42387,540.91859 180.09821,520.17752 141.81693,500.48799 103.73569,480.40234 65.26271,461.09628 51.078964,453.9787 49.946929,440.86652 54.263732,432.43839 c 5.606704,-10.94656 18.287584,-13.78898 31.158056,-7.18721 52.900212,27.13456 105.727092,54.41335 158.717922,81.36958 24.66889,12.54903 49.52339,24.755 74.59419,36.47376 5.24235,2.45051 12.1242,9.55851 17.61004,1.56835 5.33807,-7.77478 -3.03545,-12.0415 -7.47664,-16.14535 -40.10099,-37.05515 -80.42104,-73.87373 -120.76436,-110.66573 -25.37829,-23.14424 -51.01248,-46.00856 -76.32476,-69.22422 -13.84819,-12.70105 -10.94155,-30.55472 5.57406,-36.03122 8.59481,-2.85008 15.61925,0.71917 21.77385,6.2416 17.55401,15.75099 34.91615,31.71567 52.43773,47.50305 51.41581,46.32699 102.86832,92.61322 154.33071,138.88852 1.70738,1.53531 3.6239,2.85796 5.5351,4.14249 3.63779,2.44501 7.4857,3.8294 11.19139,0.31952 3.50853,-3.32308 2.20828,-7.06506 0.14635,-10.52486 -4.46035,-7.4841 -8.96692,-14.94411 -13.62344,-22.30716 C 322.987,403.87409 276.79064,330.91363 230.62366,257.93456 c -3.58766,-5.67121 -6.35306,-11.50048 -6.30423,-18.59774 0.059,-8.57692 4.03848,-14.02872 11.5663,-17.28183 8.00658,-3.45994 16.1986,-2.03694 21.9725,3.91378 6.48076,6.67924 11.03474,14.77481 15.95669,22.56551 44.48344,70.41075 88.87139,140.88181 133.40062,211.26359 4.10111,6.48213 8.88928,12.54249 13.55647,18.64732 1.87768,2.45609 4.36077,4.83335 7.84447,3.39861 3.3881,-1.39519 3.73954,-4.71714 3.47829,-7.86132 -0.87285,-10.50653 -3.93613,-20.57335 -6.88912,-30.5942 -24.86566,-84.38043 -49.89229,-168.71334 -74.87079,-253.06051 -3.01929,-10.19547 -0.76054,-19.10836 6.17469,-24.35721 7.15473,-5.41505 16.74311,-5.91017 23.64515,-1.13524 5.6451,3.90534 7.88198,10.00621 9.71801,16.14489 7.8399,26.2119 15.43682,52.49648 23.24575,78.71775 18.46156,61.99145 36.95253,123.97417 55.5613,185.9215 1.82303,6.06867 3.23005,12.47567 7.773,17.371 5.438,5.85982 10.3159,4.75977 13.22152,-2.77913 1.35149,-3.50665 0.91905,-7.0872 0.92022,-10.64119 0.0317,-96.66744 0.002,-193.33494 0.0444,-290.0024 0.007,-16.61161 14.99411,-25.96939 29.81921,-18.64645 8.76453,4.32937 10.93413,12.48474 11.01677,21.26634 0.19794,21.024 0.0725,42.05102 0.0804,63.07681 0.0277,75.38519 0.0527,150.77038 0.0928,226.15558 0.003,5.83781 -1.25205,13.17701 6.1335,14.8636 7.79846,1.78086 10.33107,-5.53176 12.3691,-11.15392 10.29256,-28.39269 17.92649,-57.62063 26.49909,-86.54855 19.25433,-64.97332 38.14682,-130.05387 57.27154,-195.06574 3.23843,-11.00868 13.15649,-16.46947 23.9095,-13.59783 11.25368,3.00534 17.72094,13.47661 14.48017,24.90866 -11.01939,38.87115 -22.34971,77.65432 -33.58866,116.46317 -15.29321,52.80865 -30.63346,105.60379 -45.87691,158.4268 -1.19813,4.15193 -2.05671,8.4442 -2.59366,12.7313 -0.44088,3.52088 -0.85537,7.65655 3.46407,9.24097 3.95361,1.45022 6.02628,-1.86163 8.03228,-4.45534 2.97604,-3.84808 5.97359,-7.70805 8.59326,-11.79908 44.63576,-69.70732 89.22034,-139.44726 133.79826,-209.19153 5.65844,-8.8529 11.21133,-17.77334 16.82104,-26.65746 5.77732,-9.14985 16.42175,-12.08044 26.09381,-7.1945 9.22665,4.66093 13.89871,16.14877 9.09659,25.49215 -5.84306,11.36872 -12.60939,22.29562 -19.45292,33.11209 -42.20164,66.70169 -84.54988,133.3106 -126.80598,199.97793 -3.42782,5.40801 -6.79358,10.88839 -9.69027,16.58816 -1.91792,3.77367 -4.14075,7.99161 0.0743,11.9653 4.3835,4.13225 8.21003,1.06422 11.78369,-1.15212 9.21286,-5.7138 16.6739,-13.60052 24.64927,-20.8046 60.30778,-54.47557 120.49291,-109.08678 180.76896,-163.59766 5.28547,-4.77991 10.2351,-10.29862 17.58357,-11.9862 8.9838,-2.06309 17.82845,1.62461 22.00263,8.827 4.5359,7.82658 3.46088,18.09576 -3.49749,24.76998 -12.7637,12.2427 -25.8506,24.15219 -38.92595,36.0655 -48.70121,44.37307 -97.41309,88.73453 -146.22989,132.98015 -6.84231,6.20164 -13.87195,12.20763 -19.9388,19.1637 -2.7301,3.13032 -6.23615,6.58027 -2.85443,11.51996 3.6547,5.33856 7.73975,2.14968 11.50282,0.47131 55.03678,-24.54752 108.0086,-53.25193 161.67916,-80.5451 26.49854,-13.47534 52.68062,-27.57187 79.0939,-41.21699 15.69728,-8.10927 28.60791,-1.82107 31.42677,15.00854 1.359,8.11448 -2.28659,15.54703 -10.80098,20.10231 -30.7301,16.44121 -61.40271,33.00505 -92.42559,48.88052 -48.35452,24.74461 -96.22604,50.4489 -145.32464,73.72392 -5.88495,2.78963 -11.57899,5.57515 -8.7223,13.5367 2.89941,8.08083 9.91572,6.34781 15.70855,5.11052 20.2422,-4.32367 40.33959,-9.31991 60.54658,-13.81552 64.58808,-14.36942 129.18554,-28.69827 193.81728,-42.86991 12.35875,-2.70987 21.6058,2.8796 24.4484,13.88499 2.9172,11.29483 -3.7063,23.16805 -15.6122,25.944 -32.10346,7.4848 -64.34355,14.38231 -96.50926,21.6026 -47.6243,10.69044 -95.23357,21.44728 -142.84264,32.20532 -6.75526,1.52644 -13.34516,3.60578 -19.62459,6.57262 -3.40733,1.60991 -6.62858,3.86486 -5.97931,7.99415 0.70908,4.50961 4.20835,6.9411 8.69618,7.39081 3.30546,0.3313 6.65937,0.23382 9.99169,0.23354 84.35962,-0.007 168.71934,-0.0273 253.07896,-0.0409 2.30707,-3.7e-4 4.63307,-0.1355 6.91827,0.10129 11.7559,1.21834 19.9251,10.13633 19.2794,20.91963 -0.6725,11.23042 -9.8202,20.00924 -21.3265,19.95542 -61.77921,-0.28885 -123.54985,1.63105 -185.3402,0.23608 -24.81999,-0.56043 -49.68956,-0.99434 -74.52644,1.22903 -24.27261,2.17279 -43.59069,13.73729 -60.6495,30.09548 -46.82,44.89739 -92.15807,91.2889 -138.14954,137.02194 -22.3267,22.20134 -45.5169,22.0785 -67.73385,-0.39657 -44.159,-44.67238 -88.1346,-89.5261 -132.20488,-134.28619 -15.9981,-16.2486 -34.2704,-28.50547 -57.47493,-31.50254 -9.11378,-1.17711 -18.32428,-2.23843 -27.49305,-2.25785 -78.71821,-0.16698 -157.43694,-0.0768 -236.155517,-0.0811 -12.46899,-6.7e-4 -18.7730371,-4.268 -22.11215705,-14.81721 C -1.7624149,677.61461 1.8704843,669.21489 11.258397,662.54698 m 454.735153,-6.20781 c -1.73067,-18.07984 -16.02121,-32.35071 -32.79807,-32.75271 -18.6313,-0.44633 -34.91681,14.88951 -35.34492,33.28403 -0.45206,19.42204 14.64983,36.00194 33.08401,36.32233 18.71985,0.3252 34.38471,-15.55586 35.05898,-36.85365 m 131.686,35.48442 c 14.58713,-3.82277 23.61049,-13.33499 26.3173,-27.91172 2.48107,-13.3611 -2.18142,-24.7301 -12.90079,-33.29981 -11.92961,-9.53747 -29.51063,-9.43051 -41.253,0.10692 -12.48649,10.14148 -16.64931,27.96403 -9.87132,42.26268 6.68369,14.09987 22.41057,22.33103 37.70781,18.84198 z"
   id="path1"
   style="fill:#ffffff;fill-opacity:1;stroke-width:1.53855" />
</svg>
