<?xml version="1.0" encoding="UTF-8" standalone="no"?>
<svg
   version="1.2"
   viewBox="0 0 1080 1080"
   width="1080"
   height="1080"
   id="svg11"
   sodipodi:docname="soloscritta.svg"
   inkscape:version="1.4.2 (f4327f4, 2025-05-13)"
   xmlns:inkscape="http://www.inkscape.org/namespaces/inkscape"
   xmlns:sodipodi="http://sodipodi.sourceforge.net/DTD/sodipodi-0.dtd"
   xmlns="http://www.w3.org/2000/svg"
   xmlns:svg="http://www.w3.org/2000/svg">
  <defs
     id="defs11" />
  <sodipodi:namedview
     id="namedview11"
     pagecolor="#ffffff"
     bordercolor="#000000"
     borderopacity="0.25"
     inkscape:showpageshadow="2"
     inkscape:pageopacity="0.0"
     inkscape:pagecheckerboard="0"
     inkscape:deskcolor="#d1d1d1"
     inkscape:zoom="0.68055556"
     inkscape:cx="513.55102"
     inkscape:cy="437.14285"
     inkscape:window-width="1920"
     inkscape:window-height="974"
     inkscape:window-x="-11"
     inkscape:window-y="-11"
     inkscape:window-maximized="1"
     inkscape:current-layer="Layer 1" />
  <style
     id="style1">
		tspan { white-space:pre } 
		.t0 { font-size: 120px;fill: #000000;font-weight: 600;font-family: &quot;Montserrat-SemiBold&quot;, &quot;Montserrat&quot; } 
	</style>
  <g
     id="Layer 1">
    <g
       id="TERMOSERAS"
       aria-label="TERMOSERAS"
       transform="matrix(1.2554048,0,0,1.2554048,-0.60259701,603.76041)">
      <path
         style="font-weight:600;font-size:120px;font-family:Montserrat-SemiBold, Montserrat;white-space:pre"
         d="M 28.32,0 V -70.8 H 0.48 V -84 h 71.28 v 13.2 H 43.92 V 0 Z"
         id="path23" />
      <path
         style="font-weight:600;font-size:120px;font-family:Montserrat-SemiBold, Montserrat;white-space:pre"
         d="m 83.519914,0 v -84 h 61.319996 v 13.08 H 99.119914 v 57.84 H 146.51991 V 0 Z m 14.4,-36.24 v -12.84 h 41.759996 v 12.84 z"
         id="path24" />
      <path
         style="font-weight:600;font-size:120px;font-family:Montserrat-SemiBold, Montserrat;white-space:pre"
         d="m 163.91992,0 v -84 h 34.44 q 16.8,0 26.28,7.92 9.6,7.92 9.6,21.96 0,9.24 -4.32,15.96 -4.32,6.6 -12.36,10.2 -7.92,3.48 -19.08,3.48 h -25.92 l 6.96,-7.08 V 0 Z m 54.96,0 -21.24,-30.48 h 16.68 l 21.36,30.48 z m -39.36,-29.88 -6.96,-7.44 h 25.2 q 10.32,0 15.48,-4.44 5.28,-4.44 5.28,-12.36 0,-8.04 -5.28,-12.36 -5.16,-4.32 -15.48,-4.32 h -25.2 l 6.96,-7.68 z"
         id="path25" />
      <path
         style="font-weight:600;font-size:120px;font-family:Montserrat-SemiBold, Montserrat;white-space:pre"
         d="m 251.64003,0 v -84 h 12.84 l 36.72,61.32 h -6.72 l 36.12,-61.32 h 12.84 l 0.12,84 h -14.76 l -0.12,-60.84 h 3.12 l -30.72,51.24 h -6.96 l -31.2,-51.24 h 3.6 V 0 Z"
         id="path26" />
      <path
         style="font-weight:600;font-size:120px;font-family:Montserrat-SemiBold, Montserrat;white-space:pre"
         d="m 405.60002,1.2 q -9.84,0 -18.12,-3.24 -8.28,-3.24 -14.4,-9 -6.12,-5.88 -9.48,-13.68 -3.36,-7.92 -3.36,-17.28 0,-9.36 3.36,-17.16 3.36,-7.92 9.48,-13.68 6.12,-5.88 14.4,-9.12 8.28,-3.24 18,-3.24 9.84,0 18,3.24 8.28,3.24 14.4,9.12 6.12,5.76 9.48,13.68 3.36,7.8 3.36,17.16 0,9.36 -3.36,17.28 -3.36,7.92 -9.48,13.68 -6.12,5.76 -14.4,9 -8.16,3.24 -17.88,3.24 z m -0.12,-13.68 q 6.36,0 11.76,-2.16 5.4,-2.16 9.36,-6.12 3.96,-4.08 6.12,-9.36 2.28,-5.4 2.28,-11.88 0,-6.48 -2.28,-11.76 -2.16,-5.4 -6.12,-9.36 -3.96,-4.08 -9.36,-6.24 -5.4,-2.16 -11.76,-2.16 -6.36,0 -11.76,2.16 -5.28,2.16 -9.36,6.24 -3.96,3.96 -6.24,9.36 -2.16,5.28 -2.16,11.76 0,6.36 2.16,11.76 2.28,5.4 6.24,9.48 3.96,3.96 9.36,6.12 5.4,2.16 11.76,2.16 z"
         id="path27" />
      <path
         style="font-weight:600;font-size:120px;font-family:Montserrat-SemiBold, Montserrat;white-space:pre"
         d="m 493.32014,1.2 q -9.84,0 -18.84,-2.76 -9,-2.88 -14.28,-7.32 l 5.4,-12.12 q 5.04,3.96 12.48,6.6 7.44,2.64 15.24,2.64 6.6,0 10.68,-1.44 4.08,-1.44 6,-3.84 1.92,-2.52 1.92,-5.64 0,-3.84 -2.76,-6.12 -2.76,-2.4 -7.2,-3.72 -4.32,-1.44 -9.72,-2.64 -5.28,-1.2 -10.68,-2.76 -5.28,-1.68 -9.72,-4.2 -4.32,-2.64 -7.08,-6.96 -2.76,-4.32 -2.76,-11.04 0,-6.84 3.6,-12.48 3.72,-5.76 11.16,-9.12 7.56,-3.48 19.08,-3.48 7.56,0 15,1.92 7.44,1.92 12.96,5.52 l -4.92,12.12 q -5.64,-3.36 -11.64,-4.92 -6,-1.68 -11.52,-1.68 -6.48,0 -10.56,1.56 -3.96,1.56 -5.88,4.08 -1.8,2.52 -1.8,5.76 0,3.84 2.64,6.24 2.76,2.28 7.08,3.6 4.44,1.32 9.84,2.64 5.4,1.2 10.68,2.76 5.4,1.56 9.72,4.08 4.44,2.52 7.08,6.84 2.76,4.32 2.76,10.92 0,6.72 -3.72,12.48 -3.6,5.64 -11.16,9.12 -7.56,3.36 -19.08,3.36 z"
         id="path28" />
      <path
         style="font-weight:600;font-size:120px;font-family:Montserrat-SemiBold, Montserrat;white-space:pre"
         d="m 542.7601,0 v -84 h 61.32 v 13.08 h -45.72 v 57.84 h 47.4 V 0 Z m 14.4,-36.24 v -12.84 h 41.76 v 12.84 z"
         id="path29" />
      <path
         style="font-weight:600;font-size:120px;font-family:Montserrat-SemiBold, Montserrat;white-space:pre"
         d="m 623.16011,0 v -84 h 34.44 q 16.8,0 26.28,7.92 9.6,7.92 9.6,21.96 0,9.24 -4.32,15.96 -4.32,6.6 -12.36,10.2 -7.92,3.48 -19.08,3.48 h -25.92 l 6.96,-7.08 V 0 Z m 54.96,0 -21.24,-30.48 h 16.68 l 21.36,30.48 z m -39.36,-29.88 -6.96,-7.44 h 25.2 q 10.32,0 15.48,-4.44 5.28,-4.44 5.28,-12.36 0,-8.04 -5.28,-12.36 -5.16,-4.32 -15.48,-4.32 h -25.2 l 6.96,-7.68 z"
         id="path30" />
      <path
         style="font-weight:600;font-size:120px;font-family:Montserrat-SemiBold, Montserrat;white-space:pre"
         d="m 699.00022,0 37.8,-84 h 15.36 l 37.92,84 h -16.32 l -32.52,-75.72 h 6.24 l -32.4,75.72 z m 17.4,-19.44 4.2,-12.24 h 45.36 l 4.2,12.24 z"
         id="path31" />
      <path
         style="font-weight:600;font-size:120px;font-family:Montserrat-SemiBold, Montserrat;white-space:pre"
         d="m 826.80029,1.2 q -9.84,0 -18.84,-2.76 -9,-2.88 -14.28,-7.32 l 5.4,-12.12 q 5.04,3.96 12.48,6.6 7.44,2.64 15.24,2.64 6.6,0 10.68,-1.44 4.08,-1.44 6,-3.84 1.92,-2.52 1.92,-5.64 0,-3.84 -2.76,-6.12 -2.76,-2.4 -7.2,-3.72 -4.32,-1.44 -9.72,-2.64 -5.28,-1.2 -10.68,-2.76 -5.28,-1.68 -9.72,-4.2 -4.32,-2.64 -7.08,-6.96 -2.76,-4.32 -2.76,-11.04 0,-6.84 3.6,-12.48 3.72,-5.76 11.16,-9.12 7.56,-3.48 19.08,-3.48 7.56,0 15,1.92 7.44,1.92 12.96,5.52 l -4.92,12.12 q -5.64,-3.36 -11.64,-4.92 -6,-1.68 -11.52,-1.68 -6.48,0 -10.56,1.56 -3.96,1.56 -5.88,4.08 -1.8,2.52 -1.8,5.76 0,3.84 2.64,6.24 2.76,2.28 7.08,3.6 4.44,1.32 9.84,2.64 5.4,1.2 10.68,2.76 5.4,1.56 9.72,4.08 4.44,2.52 7.08,6.84 2.76,4.32 2.76,10.92 0,6.72 -3.72,12.48 -3.6,5.64 -11.16,9.12 -7.56,3.36 -19.08,3.36 z"
         id="path32" />
    </g>
  </g>
</svg>
